<?xml version="1.0" encoding="UTF-8" standalone="no"?>
<!-- Created with Inkscape (http://www.inkscape.org/) -->

<svg
   version="1.1"
   id="svg273"
   xml:space="preserve"
   width="682.66669"
   height="682.66669"
   viewBox="0 0 682.66669 682.66669"
   xmlns="http://www.w3.org/2000/svg"
   xmlns:svg="http://www.w3.org/2000/svg"><defs
     id="defs277"><clipPath
       clipPathUnits="userSpaceOnUse"
       id="clipPath287"><path
         d="M 0,512 H 512 V 0 H 0 Z"
         id="path285" /></clipPath><clipPath
       clipPathUnits="userSpaceOnUse"
       id="clipPath307"><path
         d="M 0,512 H 512 V 0 H 0 Z"
         id="path305" /></clipPath><clipPath
       clipPathUnits="userSpaceOnUse"
       id="clipPath327"><path
         d="M 0,512 H 512 V 0 H 0 Z"
         id="path325" /></clipPath></defs><g
     id="g279"
     transform="matrix(1.3333333,0,0,-1.3333333,0,682.66667)"><g
       id="g281"><g
         id="g283"
         clip-path="url(#clipPath287)"><g
           id="g289"
           transform="translate(133.0643,244.8352)"><path
             d="M 0,0 V -234.835"
             style="fill:none;stroke:#000000;stroke-width:20;stroke-linecap:round;stroke-linejoin:round;stroke-miterlimit:10;stroke-dasharray:none;stroke-opacity:1"
             id="path291" /></g></g></g><g
       id="g293"
       transform="translate(133.0643,146.2694)"><path
         d="M 0,0 48.517,48.517"
         style="fill:none;stroke:#000000;stroke-width:20;stroke-linecap:round;stroke-linejoin:round;stroke-miterlimit:10;stroke-dasharray:none;stroke-opacity:1"
         id="path295" /></g><g
       id="g297"
       transform="translate(133.0643,189.3972)"><path
         d="M 0,0 -36.584,36.584"
         style="fill:none;stroke:#000000;stroke-width:20;stroke-linecap:round;stroke-linejoin:round;stroke-miterlimit:10;stroke-dasharray:none;stroke-opacity:1"
         id="path299" /></g><g
       id="g301"><g
         id="g303"
         clip-path="url(#clipPath307)"><g
           id="g309"
           transform="translate(256.0001,16.0532)"><path
             d="M 0,0 V 389.947"
             style="fill:none;stroke:#000000;stroke-width:20;stroke-linecap:round;stroke-linejoin:round;stroke-miterlimit:10;stroke-dasharray:none;stroke-opacity:1"
             id="path311" /></g></g></g><g
       id="g313"
       transform="translate(256.2143,339.64)"><path
         d="M 0,0 33.448,33.448"
         style="fill:none;stroke:#000000;stroke-width:20;stroke-linecap:round;stroke-linejoin:round;stroke-miterlimit:10;stroke-dasharray:none;stroke-opacity:1"
         id="path315" /></g><g
       id="g317"
       transform="translate(254.0833,294.5028)"><path
         d="M 0,0 -39.937,39.937"
         style="fill:none;stroke:#000000;stroke-width:20;stroke-linecap:round;stroke-linejoin:round;stroke-miterlimit:10;stroke-dasharray:none;stroke-opacity:1"
         id="path319" /></g><g
       id="g321"><g
         id="g323"
         clip-path="url(#clipPath327)"><g
           id="g329"
           transform="translate(452.8491,241.5687)"><path
             d="m 0,0 c 1.602,6.156 2.456,12.613 2.456,19.269 0,42.143 -34.163,76.306 -76.305,76.306 -42.142,0 -76.305,-34.163 -76.305,-76.306 0,-12.158 2.848,-23.65 7.907,-33.852 -31.353,-7.76 -54.602,-36.07 -54.602,-69.822 0,-39.731 32.208,-71.939 71.939,-71.939 16.876,0 32.382,5.826 44.651,15.556 13.447,-9.782 29.996,-15.556 47.897,-15.556 45.018,0 81.513,36.495 81.513,81.513 C 49.151,-41.312 28.917,-12.523 0,0 Z"
             style="fill:none;stroke:#000000;stroke-width:20;stroke-linecap:round;stroke-linejoin:round;stroke-miterlimit:10;stroke-dasharray:none;stroke-opacity:1"
             id="path331" /></g><g
           id="g333"
           transform="translate(372.5903,214.6711)"><path
             d="M 0,0 V -204.671"
             style="fill:none;stroke:#000000;stroke-width:20;stroke-linecap:round;stroke-linejoin:round;stroke-miterlimit:10;stroke-dasharray:none;stroke-opacity:1"
             id="path335" /></g><g
           id="g337"
           transform="translate(372.5903,168.899)"><path
             d="M 0,0 42.285,42.285"
             style="fill:none;stroke:#000000;stroke-width:20;stroke-linecap:round;stroke-linejoin:round;stroke-miterlimit:10;stroke-dasharray:none;stroke-opacity:1"
             id="path339" /></g><g
           id="g341"
           transform="translate(372.5903,130.7018)"><path
             d="M 0,0 -39.809,39.809"
             style="fill:none;stroke:#000000;stroke-width:20;stroke-linecap:round;stroke-linejoin:round;stroke-miterlimit:10;stroke-dasharray:none;stroke-opacity:1"
             id="path343" /></g><g
           id="g345"
           transform="translate(10,10)"><path
             d="M 0,0 H 492"
             style="fill:none;stroke:#000000;stroke-width:20;stroke-linecap:round;stroke-linejoin:round;stroke-miterlimit:10;stroke-dasharray:none;stroke-opacity:1"
             id="path347" /></g><g
           id="g349"
           transform="translate(502,452.3333)"><path
             d="m 0,0 c 0,-27.43 -22.237,-49.667 -49.667,-49.667 -27.43,0 -49.666,22.237 -49.666,49.667 0,27.43 22.236,49.667 49.666,49.667 C -22.237,49.667 0,27.43 0,0 Z"
             style="fill:none;stroke:#000000;stroke-width:20;stroke-linecap:round;stroke-linejoin:round;stroke-miterlimit:10;stroke-dasharray:none;stroke-opacity:1"
             id="path351" /></g><g
           id="g353"
           transform="translate(18.194,172.3288)"><path
             d="m 0,0 c 17.771,-46.105 62.501,-78.817 114.87,-78.817 62.658,0 114.38,46.827 122.076,107.395"
             style="fill:none;stroke:#000000;stroke-width:20;stroke-linecap:round;stroke-linejoin:round;stroke-miterlimit:10;stroke-dasharray:none;stroke-opacity:1"
             id="path355" /></g><g
           id="g357"
           transform="translate(169.7889,334.067)"><path
             d="m 0,0 c -11.598,3.621 -23.933,5.573 -36.725,5.573 -52.371,0 -97.101,-32.714 -114.871,-78.821"
             style="fill:none;stroke:#000000;stroke-width:20;stroke-linecap:round;stroke-linejoin:round;stroke-miterlimit:10;stroke-dasharray:none;stroke-opacity:1"
             id="path359" /></g><g
           id="g361"
           transform="translate(341.4134,327.2565)"><path
             d="m 0,0 c 1.077,7.828 1.633,15.822 1.633,23.946 0,64.438 -35.011,120.696 -87.046,150.797 -52.036,-30.101 -87.047,-86.359 -87.047,-150.797 0,-64.438 35.011,-120.695 87.047,-150.797 18.933,10.952 35.613,25.368 49.172,42.38"
             style="fill:none;stroke:#000000;stroke-width:20;stroke-linecap:round;stroke-linejoin:round;stroke-miterlimit:10;stroke-dasharray:none;stroke-opacity:1"
             id="path363" /></g><g
           id="g365"
           transform="translate(10,216.5757)"><path
             d="M 0,0 V 0"
             style="fill:none;stroke:#000000;stroke-width:20;stroke-linecap:round;stroke-linejoin:round;stroke-miterlimit:10;stroke-dasharray:none;stroke-opacity:1"
             id="path367" /></g></g></g></g></svg>
