<svg xmlns="http://www.w3.org/2000/svg" xml:space="preserve" width="512" height="512" style="enable-background:new 0 0 512 512">
    <path d="M10 298.735c40.999 0 40.999 20.082 81.997 20.082 40.999 0 40.999-20.082 81.999-20.082 40.999 0 40.999 20.082 81.997 20.082 41 0 41-20.082 82-20.082 41.002 0 41.002 20.082 82.003 20.082s41.002-20.082 82.004-20.082M10 358.98c40.999 0 40.999 20.082 81.997 20.082 40.999 0 40.999-20.082 81.999-20.082 40.999 0 40.999 20.082 81.997 20.082 41 0 41-20.082 82-20.082 41.002 0 41.002 20.082 82.003 20.082S460.998 358.98 502 358.98M10 419.225c40.999 0 40.999 20.082 81.997 20.082 40.999 0 40.999-20.082 81.999-20.082 40.999 0 40.999 20.082 81.997 20.082 41 0 41-20.082 82-20.082 41.002 0 41.002 20.082 82.003 20.082s41.002-20.082 82.004-20.082" style="fill:none;stroke:#000;stroke-width:20;stroke-linecap:round;stroke-linejoin:round;stroke-miterlimit:10"/>
    <path d="M94.273 318.796c-5.061-7.792-4.177-18.314 2.651-25.142l42.593-42.603c7.852-7.842 20.564-7.842 28.406 0l64.984 64.984" style="fill:none;stroke:#000;stroke-width:20;stroke-linecap:round;stroke-linejoin:round;stroke-miterlimit:10"/>
    <path d="m232.906 316.035-64.984-64.984c-7.842-7.842-7.842-20.553 0-28.395l42.603-42.603c7.842-7.842 20.554-7.842 28.395 0 101.045 101.053 120.822 120.805 121.173 121.203" style="fill:none;stroke:#000;stroke-width:20;stroke-linecap:round;stroke-linejoin:round;stroke-miterlimit:10"/>
    <path d="M374.532 306.627c4.9-.171 9.75-2.129 13.485-5.874a125.351 125.351 0 0 0 36.719-88.62c0-8.965-.98-15.314-1.215-17.883l-78.098-78.097-4.026-.442a125.338 125.338 0 0 0-102.477 35.946c-7.839 7.819-7.852 20.564 0 28.395 126.599 126.599 120.956 120.973 121.253 121.223" style="fill:none;stroke:#000;stroke-width:20;stroke-linecap:round;stroke-linejoin:round;stroke-miterlimit:10"/>
    <path d="m462.568 133.905-56.799-56.799c-5.882-5.882-15.418-5.882-21.3 0l-39.05 39.05 78.099 78.099 39.049-39.05c5.883-5.882 5.883-15.419.001-21.3z" style="fill:none;stroke:#000;stroke-width:20;stroke-linecap:round;stroke-linejoin:round;stroke-miterlimit:10"/>
</svg>
